<?xml version="1.0" standalone="no"?><!DOCTYPE svg PUBLIC "-//W3C//DTD SVG 1.1//EN" "http://www.w3.org/Graphics/SVG/1.1/DTD/svg11.dtd"><svg class="icon" width="200px" height="200.00px" viewBox="0 0 1024 1024" version="1.1" xmlns="http://www.w3.org/2000/svg"><path d="M942.08 88.746667L856.746667 3.413333c-6.826667-6.826667-17.066667-6.826667-23.893334 0l-71.68 71.68-37.546666-37.546666c-6.826667-6.826667-17.066667-6.826667-23.893334 0l-341.333333 341.333333c-6.826667 6.826667-6.826667 17.066667 0 23.893333l20.48 20.48L307.2 494.933333c-6.826667 6.826667-6.826667 17.066667 0 23.893334l102.4 102.4c3.413333 3.413333 6.826667 3.413333 13.653333 3.413333s10.24 0 13.653334-3.413333l71.68-71.68 20.48 20.48c3.413333 3.413333 6.826667 3.413333 13.653333 3.413333 3.413333 0 6.826667 0 10.24-3.413333l58.026667-51.2c3.413333-3.413333 6.826667-6.826667 6.826666-13.653334 0-3.413333-3.413333-10.24-6.826666-13.653333-34.133333-34.133333-54.613333-75.093333-54.613334-122.88 0-95.573333 75.093333-170.666667 170.666667-170.666667 54.613333 0 102.4 23.893333 136.533333 68.266667 3.413333 3.413333 6.826667 6.826667 13.653334 6.826667 3.413333 0 10.24 0 13.653333-3.413334l20.48-20.48c6.826667-6.826667 6.826667-17.066667 0-23.893333l-37.546667-37.546667 71.68-71.68c3.413333-6.826667 3.413333-20.48-3.413333-27.306666z" fill="#1afa29" /><path d="M860.16 375.466667c0-75.093333-61.44-136.533333-136.533333-136.533334s-136.533333 61.44-136.533334 136.533334 61.44 136.533333 136.533334 136.533333 136.533333-61.44 136.533333-136.533333z" fill="#1afa29" /><path d="M904.533333 460.8c-3.413333-6.826667-6.826667-10.24-13.653333-10.24s-13.653333 3.413333-17.066667 10.24c-17.066667 30.72-44.373333 54.613333-78.506666 71.68-6.826667 3.413333-10.24 10.24-10.24 20.48 3.413333 20.48 6.826667 40.96 6.826666 64.853333 0 126.293333-119.466667 238.933333-256 238.933334-68.266667 0-119.466667-6.826667-160.426666-34.133334h126.293333c10.24 0 17.066667-6.826667 17.066667-17.066666v-102.4c0-10.24-6.826667-17.066667-17.066667-17.066667h-409.6c-10.24 0-17.066667 6.826667-17.066667 17.066667v102.4c0 10.24 6.826667 17.066667 17.066667 17.066666h58.026667c20.48 40.96 44.373333 58.026667 75.093333 78.506667 6.826667 3.413333 13.653333 10.24 20.48 13.653333v92.16c0 10.24 6.826667 17.066667 17.066667 17.066667h614.4c10.24 0 17.066667-6.826667 17.066666-17.066667v-136.533333c0-10.24-6.826667-17.066667-17.066666-17.066667h-30.72c54.613333-71.68 81.92-153.6 81.92-238.933333 0-54.613333-6.826667-105.813333-23.893334-153.6z" fill="#1afa29" /></svg>